<?xml version="1.0" standalone="no"?>
<!DOCTYPE svg PUBLIC "-//W3C//DTD SVG 20010904//EN"
 "http://www.w3.org/TR/2001/REC-SVG-20010904/DTD/svg10.dtd">
<svg version="1.0" xmlns="http://www.w3.org/2000/svg"
 width="1280.000000pt" height="1031.000000pt" viewBox="0 0 1280.000000 1031.000000"
 preserveAspectRatio="xMidYMid meet">
<metadata>
Created by potrace 1.15, written by Peter Selinger 2001-2017
</metadata>
<g transform="translate(0.000000,1031.000000) scale(0.100000,-0.100000)"
fill="#000000" stroke="none">
<path d="M3525 10290 c-81 -28 -195 -50 -258 -50 -96 -1 -137 -16 -197 -74
-30 -30 -65 -59 -77 -65 -13 -6 -77 -11 -155 -11 -283 0 -443 -42 -627 -164
-98 -66 -234 -187 -267 -240 -36 -56 -55 -63 -204 -70 -140 -6 -253 -27 -368
-67 -184 -65 -315 -152 -507 -339 -67 -65 -131 -122 -142 -129 -12 -6 -65 -12
-117 -14 l-96 -3 -119 -117 c-65 -64 -125 -117 -135 -117 -59 0 -177 -105
-223 -197 -24 -51 -28 -69 -28 -149 0 -83 2 -94 30 -139 17 -27 61 -75 99
-107 67 -56 71 -58 128 -58 80 0 154 23 226 69 68 44 86 68 134 171 19 41 64
118 100 171 87 127 104 162 112 234 11 97 55 173 165 287 178 186 301 261 501
303 82 17 271 29 287 18 10 -7 8 -21 -8 -63 -96 -251 -88 -719 27 -1567 48
-356 63 -432 225 -1148 96 -423 228 -868 395 -1339 35 -99 64 -190 64 -202 0
-16 -10 -29 -29 -38 -45 -24 -52 -61 -25 -143 8 -26 82 -226 163 -443 82 -217
170 -452 195 -522 57 -156 211 -529 272 -657 41 -86 54 -104 167 -215 202
-201 409 -363 563 -440 170 -85 340 -126 523 -126 46 0 114 -5 150 -11 64 -11
68 -14 137 -83 139 -143 431 -522 674 -876 435 -634 795 -981 1290 -1243 534
-283 1113 -378 1686 -278 777 136 1418 620 1770 1336 97 198 144 332 209 586
25 101 59 211 75 244 16 33 75 132 133 220 431 665 756 1359 1099 2350 44 127
88 253 97 280 l18 50 109 6 c119 7 206 25 305 62 281 106 498 298 624 552 85
171 98 233 99 460 0 167 -2 201 -23 280 -46 179 -141 344 -276 480 -526 529
-1397 382 -1720 -290 -56 -115 -74 -180 -91 -319 -35 -289 35 -569 194 -776
19 -25 102 -111 184 -191 l151 -147 -8 -48 c-4 -27 -25 -98 -47 -159 -84 -234
-148 -416 -194 -550 -106 -311 -289 -746 -459 -1085 -93 -188 -234 -440 -246
-440 -8 0 -14 15 -79 218 -253 783 -892 1370 -1712 1572 -219 54 -319 65 -588
64 -218 -1 -261 -4 -390 -27 -263 -47 -492 -124 -729 -244 -340 -173 -612
-404 -884 -753 -43 -54 -73 -86 -78 -79 -4 6 -7 173 -8 371 l0 360 -427 859
-428 859 -57 0 c-54 0 -60 2 -85 34 -15 19 -72 117 -126 218 -164 303 -263
479 -326 578 -32 52 -68 115 -79 140 -42 95 -346 537 -622 905 -282 377 -378
492 -697 835 -348 374 -514 528 -663 611 -136 75 -181 103 -181 111 0 18 150
164 214 209 120 85 239 117 467 126 80 3 162 3 182 -1 22 -4 57 -25 89 -52 81
-70 118 -85 247 -100 64 -8 156 -26 204 -40 164 -49 307 -19 396 82 71 81 91
200 51 308 -57 152 -262 241 -425 186z m-1255 -886 c0 -2 -9 0 -20 6 -11 6
-20 13 -20 16 0 2 9 0 20 -6 11 -6 20 -13 20 -16z m-143 -26 c90 -37 214 -110
281 -167 28 -24 56 -41 63 -39 29 10 617 -653 839 -946 47 -62 107 -137 134
-166 98 -111 714 -1055 878 -1350 146 -260 329 -630 326 -655 -2 -12 -12 -21
-25 -23 -13 -2 -25 -14 -31 -30 -10 -30 23 -109 251 -592 145 -308 459 -1026
488 -1117 18 -56 23 -99 27 -240 5 -191 -5 -271 -45 -373 -56 -141 -192 -310
-334 -415 -213 -157 -616 -276 -826 -245 -165 25 -316 102 -482 243 -147 126
-245 309 -569 1063 -66 154 -161 391 -211 528 -110 303 -114 309 -169 317 -23
3 -50 13 -61 23 -20 18 -110 278 -225 646 -200 643 -350 1291 -425 1840 -72
520 -121 1041 -121 1277 0 182 12 276 50 375 36 96 54 100 187 46z m1078 -968
c10 -11 16 -20 13 -20 -3 0 -13 9 -23 20 -10 11 -16 20 -13 20 3 0 13 -9 23
-20z m4925 -4041 c352 -43 694 -178 959 -377 281 -212 541 -558 651 -867 72
-205 113 -428 114 -630 1 -134 0 -142 -25 -185 -92 -155 -416 -489 -682 -701
-297 -238 -685 -434 -1026 -519 -288 -71 -573 -97 -778 -69 -95 12 -312 68
-408 104 -231 87 -414 211 -596 403 -354 374 -488 866 -379 1389 47 226 165
485 302 668 145 193 352 382 553 505 245 151 578 261 845 280 164 11 377 11
470 -1z m-2584 -1276 c-27 -87 -47 -236 -58 -435 -7 -126 -15 -228 -18 -228
-11 0 -73 334 -78 416 -5 97 5 121 86 206 56 59 78 72 68 41z m3933 -1803
c-42 -70 -177 -226 -267 -308 -263 -238 -458 -357 -752 -456 -246 -83 -301
-90 -645 -91 -290 0 -304 1 -427 28 -206 44 -354 98 -583 212 -202 100 -254
130 -244 139 2 2 42 -11 89 -30 339 -139 534 -177 910 -177 471 -1 835 85
1260 298 190 96 497 287 615 383 28 23 54 41 59 42 4 0 -3 -18 -15 -40z"/>
</g>
</svg>
